<?xml version="1.0" standalone="no"?><!DOCTYPE svg PUBLIC "-//W3C//DTD SVG 1.1//EN" "http://www.w3.org/Graphics/SVG/1.1/DTD/svg11.dtd"><svg t="1778520681188" class="icon" viewBox="0 0 1024 1024" version="1.1" xmlns="http://www.w3.org/2000/svg" p-id="6458" xmlns:xlink="http://www.w3.org/1999/xlink" width="200" height="200"><path d="M830.537 476.526L706.414 961.829a8.485 8.485 0 0 0 0 4.022 9.07 9.07 0 0 0 8.996 6.949h248.1a9.07 9.07 0 0 0 9.07-10.971L847.873 476.526a9.143 9.143 0 0 0-17.335 0m-682.935 109.86L51.492 961.83a8.997 8.997 0 0 0 9.07 10.971H252.05a9.143 9.143 0 0 0 7.241-3.291 8.777 8.777 0 0 0 1.756-3.658 8.485 8.485 0 0 0 0-4.022l-96.183-375.37a8.777 8.777 0 0 0-3.291-4.534 9.216 9.216 0 0 0-10.752 0 8.777 8.777 0 0 0-3.219 4.534" fill="#00E5E5" p-id="6459"></path><path d="M317.074 275.749L141.97 961.829a8.777 8.777 0 0 0 1.683 7.46 8.73 8.73 0 0 0 6.948 3.438h350.354a9.07 9.07 0 0 0 9.07-10.898L334.41 275.749a8.777 8.777 0 0 0-3.291-4.608 9.216 9.216 0 0 0-10.752 0 8.777 8.777 0 0 0-3.292 4.608" fill="#006EFF" p-id="6460"></path><path d="M619.227 57.49a8.777 8.777 0 0 0-3.364-4.535 9.216 9.216 0 0 0-10.752 0 8.777 8.777 0 0 0-3.292 4.535L362.57 961.83a8.997 8.997 0 0 0 8.997 10.898H849.92a9.216 9.216 0 0 0 9.143-6.876 8.997 8.997 0 0 0 0-4.022L619.154 57.49z" fill="#006EFF" p-id="6461"></path><path d="M443.319 375.442L291.474 961.83a9.07 9.07 0 0 0 9.07 10.971l302.958 0.073a9.216 9.216 0 0 0 7.314-3.364 9.143 9.143 0 0 0 1.829-7.68L460.654 375.442a9.216 9.216 0 0 0-8.704-6.29 9.216 9.216 0 0 0-8.631 6.29" fill="#00E5E5" p-id="6462"></path></svg>